<?xml version="1.0" encoding="UTF-8"?>
<svg width="161px" height="62px" viewBox="0 0 161 62" version="1.1" xmlns="http://www.w3.org/2000/svg" xmlns:xlink="http://www.w3.org/1999/xlink">
    <!-- Generator: Sketch 52.5 (67469) - http://www.bohemiancoding.com/sketch -->
    <title>big_heart_red_dog_black_text</title>
    <desc>Created with Sketch.</desc>
    <defs>
        <polygon id="path-1" points="0 0.924 71.3442594 0.924 71.3442594 63 0 63"></polygon>
        <polygon id="path-3" points="152.448986 37.9941516 160.929 37.9941516 160.929 53.8557241 152.448986 53.8557241"></polygon>
    </defs>
    <g id="big_heart_red_dog_black_text" stroke="none" stroke-width="1" fill="none" fill-rule="evenodd">
        <g id="Group-41" transform="translate(0.000000, -1.000000)">
            <g id="Group-3" transform="translate(0.000000, 0.076200)">
                <mask id="mask-2" fill="white">
                    <use xlink:href="#path-1"></use>
                </mask>
                <g id="Clip-2"></g>
                <path d="M24.363,14.9231 C25.507,11.3181 30.509,10.7331 32.214,14.2491 C32.811,15.4791 30.958,16.5581 30.36,15.3231 C29.504,13.5591 27.069,13.4871 26.434,15.4881 C26.021,16.7931 23.948,16.2331 24.363,14.9231 M48.419,34.9711 C47.754,33.9631 49.321,32.7611 50.106,33.6821 C52.973,37.0411 57.304,37.5871 60.83,34.6481 C61.882,33.7711 63.408,35.2701 62.349,36.1521 C59.735,38.3321 56.574,39.0931 53.667,38.3881 C56.065,40.9831 58.947,42.7031 63.134,42.5341 C66.769,39.0751 69.625,35.0111 70.778,30.1661 C70.744,29.9371 70.801,29.7391 70.915,29.5801 C70.999,29.1751 71.072,28.7641 71.132,28.3471 C73.727,10.1721 51.945,-3.0019 37.656,11.5671 C40.444,15.7791 44.785,18.8801 49.913,20.2021 C50.429,20.3351 50.874,20.9811 50.664,21.5111 C49.26,25.0581 47.76,28.7341 44.699,31.2091 C42.047,33.3541 38.363,34.5671 35.005,34.9681 C27.743,35.8351 20.525,32.5161 17.832,25.5591 C17.335,24.2771 19.413,23.7281 19.903,24.9931 C22.373,31.3751 29.455,33.8721 35.876,32.6941 C41.148,31.7261 44.318,29.0351 46.607,25.1141 C45.231,24.1211 44.582,22.3351 45.066,20.6921 C39.098,17.8451 34.536,12.5871 32.909,6.1181 C21.737,-4.7249 2.319,2.3671 0.013,18.5141 C0.008,18.5531 0.006,18.5911 0,18.6301 C0.061,18.7271 0.112,18.8361 0.141,18.9701 C0.677,21.4121 1.225,23.9121 3.229,25.6111 C4.935,27.0591 7.172,27.6021 9.356,27.8671 C9.844,27.9351 10.333,27.9801 10.825,28.0031 C11.531,27.0111 11.657,26.0181 11.202,25.0251 C10.96,23.8341 10.261,22.7061 9.947,21.5231 C9.403,19.4701 9.332,17.3191 9.254,15.2101 C9.203,13.8381 11.351,13.8451 11.402,15.2101 C11.492,17.6521 11.638,20.0231 12.468,22.3431 C12.996,23.8171 13.734,25.2591 13.694,26.8621 C13.626,29.5371 12.097,30.2841 9.618,30.0321 C6.848,29.7501 3.964,29.0631 1.795,27.2301 C1.171,26.7011 0.664,26.1031 0.236,25.4601 C2.16,34.9761 10.3,43.1421 16.727,49.5991 C24.98,57.8921 27.364,59.7531 29.922,63.0001 C33.289,60.5841 36.001,59.2831 46.352,53.7521 C50.985,51.2771 56.276,48.3191 60.793,44.6061 C58.939,44.4471 57.139,43.9491 55.465,42.8921 C52.418,40.9671 50.36,37.9131 48.419,34.9711" id="Fill-1" fill="#E63F51" mask="url(#mask-2)"></path>
            </g>
            <path d="M81.2643,16.26 C81.2853,15.582 79.8663,15.102 78.9923,15.451 C78.7953,15.954 78.5763,17.768 78.8603,18.423 C78.9923,18.707 80.3023,17.636 80.6303,17.396 C80.9363,17.156 81.2423,16.61 81.2643,16.26 M78.7953,20.717 C78.3793,21.132 78.4893,22.313 78.4233,23.055 C78.3583,23.842 78.2483,24.695 78.4893,25.284 C79.6913,25.634 81.8543,24.76 82.0503,23.777 C82.4223,22.029 80.1493,20.455 78.7953,20.717 M83.3403,20.258 C84.1263,21.067 84.8043,22.618 84.4543,23.951 C83.6673,26.901 80.4553,27.797 77.6373,27.644 C76.8283,27.6 75.9983,27.425 75.7573,26.77 C75.8233,24.825 75.9763,22.837 76.1733,20.39 C76.3043,18.707 76.3693,15.736 76.8943,14.14 C77.4183,13.398 79.4503,13.2 80.8273,13.31 C82.1813,13.441 83.7113,14.424 83.8423,15.429 C83.9303,16.304 83.3623,16.959 82.9683,17.461 C82.5093,18.073 82.0293,18.358 81.6793,19.057 C82.2473,19.691 82.8593,19.756 83.3403,20.258" id="Fill-4" fill="#10141C"></path>
            <path d="M89.0412,15.845 C89.0632,17.177 86.7252,17.549 86.5942,16.238 C86.5282,15.582 87.0522,14.949 87.6432,14.818 C88.4072,14.664 89.0192,15.058 89.0412,15.845 M88.6042,19.297 C88.6692,19.581 88.4732,20.127 88.3422,20.696 C88.1012,21.941 87.8832,23.187 87.8172,24.585 C87.7732,25.371 87.8392,26.595 87.6212,27.054 C87.3152,27.665 85.9602,28.103 85.4362,27.557 C85.0642,27.185 85.2612,26.311 85.3702,25.459 C85.5452,23.951 85.7422,22.378 85.9162,20.936 C86.0692,19.822 86.3972,18.619 87.4462,18.533 C87.7512,18.489 88.4952,18.729 88.6042,19.297" id="Fill-6" fill="#10141C"></path>
            <path d="M93.6506,25.0657 C95.3326,25.4157 95.5736,24.8907 95.6606,22.0937 C95.6606,21.1547 95.6606,20.2577 95.5736,19.9087 C95.2016,19.8217 94.5466,19.7117 94.2406,19.8217 C92.4926,20.4117 90.5256,24.4757 93.6506,25.0657 M90.8096,30.5937 C91.3346,30.7037 91.8806,31.2277 92.8196,31.1617 C93.2786,31.1397 93.9786,30.5717 94.2406,30.2447 C94.8526,29.3047 95.2016,28.4307 95.1576,27.2507 C94.5026,27.1417 93.6066,27.2507 93.1046,27.1847 C92.3176,27.1197 91.5086,26.7257 90.9626,26.2897 C89.5426,25.1527 89.4776,22.7497 90.2196,20.9147 C91.0506,18.7947 93.5416,17.3957 95.7046,17.5927 C96.1196,17.6357 97.4746,17.8547 97.8016,18.1827 C98.1296,18.4667 98.1296,19.7117 98.0866,20.1927 C97.9766,21.8537 97.9336,23.4267 97.8016,25.0657 C97.6716,26.2667 97.6716,27.4247 97.4086,28.4967 C97.1466,29.5887 96.9056,30.1127 96.4696,30.9207 C95.9446,31.8607 94.9616,32.7787 93.9346,33.1717 C92.8636,33.5867 91.8586,33.5007 90.7666,32.9977 C90.0456,32.6697 89.4986,32.0137 89.6516,31.3797 C89.8486,30.5937 90.4166,30.5057 90.8096,30.5937" id="Fill-8" fill="#10141C"></path>
            <path d="M110.2321,20.1057 C110.8441,20.0837 111.6081,19.9737 111.8271,19.6907 C112.2861,18.6197 112.3301,15.8667 112.3521,14.4027 C112.3301,13.7247 112.2641,13.1577 112.4611,12.7417 C112.7451,12.1517 113.7941,11.6707 114.4931,12.2167 C115.0611,12.6757 114.6021,15.1237 114.5801,16.3037 C114.5581,18.6847 114.4491,21.9187 114.1221,24.2567 C114.0121,25.0437 113.9251,26.7487 113.7061,27.1417 C113.3781,27.9277 112.3951,27.5997 111.9151,27.4037 C110.9311,27.1417 112.2421,23.4927 111.6961,22.4207 C111.3461,22.2687 110.8871,22.3997 110.4291,22.3997 C109.7081,22.3997 108.9641,22.2477 108.4621,22.4877 C107.8941,24.1917 108.1781,26.4197 107.9161,28.1467 C107.7631,28.6267 106.9331,29.4797 105.9931,29.1077 C105.2281,28.8237 105.4681,28.0147 105.5561,26.8787 C105.5121,25.2617 105.7741,23.5797 105.9061,21.9187 C105.9931,19.9087 106.0371,17.7027 106.3211,15.6697 C106.4301,14.0307 106.2771,11.8247 107.5231,11.6267 C108.0251,11.5617 108.5931,11.7367 108.7461,11.9117 C109.2711,12.4797 108.8121,14.6647 108.7241,15.6697 C108.5931,17.2207 108.4401,18.4017 108.5281,19.7557 C108.9431,20.1267 109.6201,20.1057 110.2321,20.1057" id="Fill-10" fill="#10141C"></path>
            <path d="M118.4235,22.5305 C118.8175,22.5965 120.1505,22.1595 120.9145,22.0065 C121.4175,21.8975 122.0505,21.5255 122.1605,21.1545 C121.5915,19.4935 120.2805,19.4065 118.9045,20.5205 C118.3365,20.9795 118.2485,22.1375 118.4235,22.5305 M120.6095,25.7645 C122.0725,26.0705 122.6845,24.8905 123.5145,25.3935 C123.9955,25.8955 123.8865,26.5735 123.5145,26.8795 C122.4005,27.6875 120.2595,27.9715 119.1445,27.3825 C117.3745,26.6605 116.8065,26.0265 116.2165,24.2355 C115.8015,22.3555 116.0425,20.9795 116.7415,20.0175 C117.2655,19.0345 118.2485,18.1825 119.1225,17.9205 C121.2645,17.1765 123.0565,17.8105 123.9955,20.0175 C124.1485,20.2805 124.4545,21.1545 124.4545,21.5485 C124.4985,22.1375 124.0835,22.8805 123.4925,23.0775 C122.5095,23.4265 122.0075,23.7325 121.0025,24.0165 C120.3245,24.2135 119.4285,24.4755 118.9045,24.6505 C119.0795,25.3715 119.6475,25.5675 120.6095,25.7645" id="Fill-12" fill="#10141C"></path>
            <path d="M127.883,23.7112 C127.905,24.9782 129.522,25.4372 130.571,25.5902 C131.248,25.4152 131.314,23.8862 131.314,23.1202 C131.029,22.8802 130.199,22.9892 129.784,23.0122 C128.954,23.0552 128.211,23.2742 127.883,23.7112 M126.812,19.1222 C126.703,18.2482 127.533,17.8332 128.233,17.5262 C129.609,16.8272 130.68,16.3692 132.056,16.6752 C132.843,16.9592 133.586,18.0082 133.761,19.1442 C134.001,20.5422 133.674,22.1152 133.499,23.2302 C133.258,24.4972 133.04,25.6992 132.69,26.8792 C132.537,27.3152 131.969,28.1032 131.445,28.1682 C131.073,28.2332 130.177,28.0812 129.806,27.9282 C128.517,27.4252 127.533,27.0322 126.572,26.0052 C126.179,25.6552 125.742,25.1962 125.676,24.6942 C125.436,23.5362 126.004,22.7712 126.485,22.2902 C126.791,21.9842 127.555,21.5252 128.167,21.3292 C129.238,21.0012 131.117,21.1322 131.466,20.6952 C132.013,19.9522 131.27,18.8162 130.767,18.7512 C129.129,19.0132 128.211,19.9962 127.403,19.9312 C126.987,19.7772 126.878,19.5162 126.812,19.1222" id="Fill-14" fill="#10141C"></path>
            <path d="M138.1071,19.5159 C138.6531,19.6909 139.3961,18.9919 139.9421,18.7729 C140.5331,18.5539 141.4281,18.2039 142.2151,18.3139 C142.6741,18.3579 143.1981,18.6419 143.2861,19.0569 C143.4171,19.9309 142.6081,20.4329 142.1711,20.5419 C141.7121,20.6519 140.7731,20.8919 140.4011,21.0229 C139.5051,21.2859 138.0201,22.2899 138.0201,22.6619 C137.9541,23.6889 137.9761,26.1589 137.7141,27.0759 C137.4951,27.8189 137.0801,27.8629 136.2501,27.8189 C135.9221,27.7969 135.4631,27.5349 135.3541,27.2729 C135.2671,27.0099 135.3541,26.5079 135.4191,26.0489 C135.5721,24.2569 135.6381,21.3069 135.8351,19.5369 C136.0311,17.9199 135.9881,17.1339 137.1681,17.0899 C137.4951,17.0689 137.8451,17.1999 138.0421,17.4179 C138.2821,18.1609 138.1511,18.7939 138.1071,19.5159" id="Fill-16" fill="#10141C"></path>
            <path d="M153.0734,18.1829 C153.2044,18.7729 152.9424,19.4069 152.4834,19.6469 C151.8054,19.9959 150.0144,19.8429 149.6204,20.1929 C149.2054,20.5419 149.0524,23.0119 148.9874,23.5369 C148.9434,23.9729 148.7254,25.6559 148.6594,26.0929 C148.5064,26.8349 148.3754,29.2609 147.2824,29.4129 C146.8024,29.4799 146.1034,29.2829 145.9494,28.9769 C145.8194,28.6269 146.2994,26.7479 146.3434,26.3989 C146.4084,26.0049 146.6714,24.3449 146.6934,23.9519 C146.8234,23.1199 146.8454,22.1159 146.9334,20.8489 C146.4524,20.2809 144.9234,20.9569 144.2894,20.6519 C143.8304,20.4119 143.6774,19.7339 143.7864,19.3629 C143.8524,18.9479 144.2234,18.5099 144.6604,18.3349 C145.1194,18.2259 146.6274,18.2479 146.9774,18.0079 C147.3484,17.7459 147.4574,16.4349 147.5454,15.9319 C147.7414,14.6639 147.5674,13.2229 149.2934,13.1349 C150.3854,13.0699 150.2544,13.6379 150.0574,14.4029 C149.9054,15.5609 149.5114,16.1509 149.7524,17.6359 C150.2764,18.1389 152.8544,17.1559 153.0734,18.1829" id="Fill-18" fill="#10141C"></path>
            <path d="M83.2023,35.1936 C83.2893,35.9366 82.7653,36.2206 82.1103,36.4176 C81.3893,36.5916 80.9303,36.5476 80.0343,36.8106 C79.2253,37.0506 78.0453,37.9686 77.6303,39.0836 C76.4723,42.1856 77.0843,45.3766 81.2143,45.1356 C81.7383,45.1146 82.3063,44.7426 82.8963,44.6326 C83.5523,44.4806 84.2733,44.6986 84.4263,45.1356 C84.6443,45.7696 84.1203,46.2946 83.5083,46.6656 C82.5253,47.2336 81.7383,47.4296 80.2083,47.4296 C78.8763,47.4296 77.8493,46.9496 77.0843,46.5346 C75.9263,45.9006 74.8773,44.6326 74.7683,42.9076 C74.4183,37.9246 76.9313,35.6746 78.3733,34.9756 C78.9193,34.6916 79.6403,34.5166 80.2743,34.4286 C81.3233,34.2976 83.0933,34.1236 83.2023,35.1936" id="Fill-20" fill="#10141C"></path>
            <path d="M90.5641,45.0481 C91.2411,44.8521 92.1811,44.0221 92.3771,43.0381 C92.7711,41.2021 91.4601,39.5641 89.9301,39.8481 C88.7501,40.0671 87.7011,42.0991 87.9201,43.4751 C88.0951,44.5461 89.1221,45.4201 90.5641,45.0481 M94.7151,42.0111 C94.9561,43.7371 93.9511,45.4201 92.5081,46.4691 C91.6781,47.0151 90.6731,47.3861 89.3401,47.2341 C88.2261,47.1241 86.9591,46.4251 86.3251,45.7701 C85.1671,44.1741 85.4071,41.6611 86.3691,40.2411 C86.8711,39.4541 86.9801,39.2141 87.8111,38.5591 C88.3351,38.1651 88.6851,37.9251 89.3841,37.8161 C92.5521,37.2471 94.6281,39.2141 94.7151,42.0111" id="Fill-22" fill="#10141C"></path>
            <path d="M99.7175,41.1155 C100.1975,40.3935 100.8095,39.6945 101.5525,39.1275 C102.1205,38.7125 102.9725,38.1225 103.8245,38.6895 C104.0875,38.8435 104.4375,39.6515 104.5025,40.3505 C104.6335,41.8585 104.0875,44.3485 104.0655,45.9445 C104.0655,46.3375 104.1535,46.8625 104.0655,47.1025 C103.7815,47.8445 102.2955,48.1945 101.7935,47.4085 C101.7275,46.3375 101.8365,45.1795 101.9895,44.1085 C102.1205,43.0595 102.2305,42.4485 102.0985,41.4655 C101.4215,41.5525 100.9845,42.3835 100.5475,42.9945 C99.4545,44.4365 99.6085,44.4155 98.9525,45.5075 C98.5805,46.1635 97.8605,48.0635 97.2705,48.1735 C95.6965,48.5015 95.9585,47.0805 96.1125,45.7045 C96.2645,44.1745 96.4835,42.8415 96.5495,41.2905 C96.5925,40.0445 96.5275,38.4935 97.5315,38.2965 C99.2805,37.9695 98.5155,40.7005 98.7995,42.1205 C99.1935,41.7495 99.4765,41.4865 99.7175,41.1155" id="Fill-24" fill="#10141C"></path>
            <path d="M111.4929,38.0345 C112.3669,38.3845 113.2189,38.9305 113.3059,39.6945 C113.3719,40.2635 112.8909,40.7005 112.6729,40.8315 C112.2359,41.1805 111.2309,40.4165 110.7939,40.2205 C109.5919,39.8915 108.8929,40.0885 108.8489,40.7875 C108.8049,41.3995 109.9419,41.9685 110.1389,42.1205 C111.0339,42.8195 112.4109,43.7375 112.3669,45.3545 C112.3229,46.5555 111.6239,47.4735 110.7719,48.0425 C110.1599,48.4575 108.9579,48.6325 108.1719,48.4575 C106.3139,48.0425 106.0089,47.7585 106.2049,46.6435 C106.2489,46.4465 106.5109,46.2065 106.7289,46.1195 C107.9099,45.6165 108.7619,47.3205 110.0729,45.5295 C110.2039,44.5895 108.7179,43.8245 108.1059,43.3885 C107.3629,42.8415 106.4459,42.1205 106.3799,41.2025 C106.3359,40.6355 106.4459,39.6735 106.7509,39.2795 C107.5379,38.3185 108.6309,37.9465 109.8099,37.8155 C109.9199,37.7945 111.0559,37.8595 111.4929,38.0345" id="Fill-26" fill="#10141C"></path>
            <path d="M117.1501,40.8098 C116.9751,42.5358 116.2111,46.2058 118.7451,45.6378 C119.6191,45.5068 120.2101,43.4978 120.3181,42.2948 C120.4061,41.3338 120.2531,39.5638 120.4281,38.8428 C120.6031,38.1878 121.6731,37.9688 122.0671,38.2088 C122.7001,38.5808 122.7441,40.4158 122.7221,41.4648 C122.7001,42.3388 122.5691,43.3228 122.3071,44.2178 C121.6081,46.6868 120.3621,48.2388 117.1501,47.7138 C115.9701,47.4298 114.9001,46.6438 114.7031,45.0268 C114.6161,44.2838 114.6371,42.7758 114.6591,42.1208 C114.7471,40.4378 114.9211,38.8218 116.8221,38.9088 C117.4131,39.2798 117.2381,40.1318 117.1501,40.8098" id="Fill-28" fill="#10141C"></path>
            <path d="M127.2433,35.6526 C127.0033,38.9956 126.6533,41.8146 126.3693,45.0266 C126.3043,45.6606 126.0853,47.3856 125.9103,47.8446 C125.6483,48.5446 124.7083,49.1776 124.0753,48.7846 C123.3323,48.3696 124.0093,45.5296 124.1183,44.4806 C124.4243,41.7926 124.6863,39.8476 124.9053,37.2256 C125.0583,35.4126 124.9053,32.9866 126.3913,32.5286 C127.9203,32.0696 127.3523,34.3636 127.2433,35.6526" id="Fill-30" fill="#10141C"></path>
            <path d="M137.3156,38.6028 C137.4466,39.1928 137.1846,39.8268 136.7256,40.0668 C136.0476,40.4158 134.2566,40.2628 133.8626,40.6128 C133.4476,40.9618 133.2946,43.4318 133.2296,43.9568 C133.1856,44.3928 132.9676,46.0758 132.9016,46.5128 C132.7486,47.2548 132.6176,49.6808 131.5246,49.8328 C131.0446,49.8998 130.3456,49.7028 130.1916,49.3968 C130.0616,49.0468 130.5416,47.1678 130.5856,46.8188 C130.6506,46.4248 130.9136,44.7648 130.9356,44.3718 C131.0656,43.5398 131.0876,42.5358 131.1756,41.2688 C130.6946,40.7008 129.1656,41.3768 128.5316,41.0718 C128.0726,40.8318 127.9196,40.1538 128.0286,39.7828 C128.0946,39.3678 128.4656,38.9298 128.9026,38.7548 C129.3616,38.6458 130.8696,38.6678 131.2196,38.4278 C131.5906,38.1658 131.6996,36.8548 131.7876,36.3518 C131.9836,35.0838 131.8096,33.6428 133.5356,33.5548 C134.6276,33.4898 134.4966,34.0578 134.2996,34.8228 C134.1476,35.9808 133.7536,36.5708 133.9946,38.0558 C134.5186,38.5588 137.0966,37.5758 137.3156,38.6028" id="Fill-32" fill="#10141C"></path>
            <path d="M141.7932,36.2649 C141.8152,37.5969 139.4772,37.9689 139.3462,36.6579 C139.2802,36.0019 139.8042,35.3689 140.3952,35.2379 C141.1592,35.0839 141.7712,35.4779 141.7932,36.2649 M141.3562,39.7169 C141.4212,40.0009 141.2252,40.5469 141.0942,41.1159 C140.8532,42.3609 140.6352,43.6069 140.5692,45.0049 C140.5252,45.7909 140.5912,47.0149 140.3732,47.4739 C140.0672,48.0849 138.7122,48.5229 138.1882,47.9769 C137.8162,47.6049 138.0132,46.7309 138.1222,45.8789 C138.2972,44.3709 138.4942,42.7979 138.6682,41.3559 C138.8212,40.2419 139.1492,39.0389 140.1982,38.9529 C140.5032,38.9089 141.2472,39.1489 141.3562,39.7169" id="Fill-34" fill="#10141C"></path>
            <path d="M146.4245,41.1155 C146.9045,40.3935 147.5165,39.6945 148.2595,39.1275 C148.8275,38.7125 149.6795,38.1225 150.5315,38.6895 C150.7945,38.8435 151.1445,39.6515 151.2095,40.3505 C151.3405,41.8585 150.7945,44.3485 150.7725,45.9445 C150.7725,46.3375 150.8605,46.8625 150.7725,47.1025 C150.4885,47.8445 149.0025,48.1945 148.5005,47.4085 C148.4345,46.3375 148.5435,45.1795 148.6965,44.1085 C148.8275,43.0595 148.9375,42.4485 148.8055,41.4655 C148.1285,41.5525 147.6915,42.3835 147.2545,42.9945 C146.1615,44.4365 146.3155,44.4155 145.6595,45.5075 C145.2875,46.1635 144.5675,48.0635 143.9775,48.1735 C142.4035,48.5015 142.6655,47.0805 142.8195,45.7045 C142.9715,44.1745 143.1905,42.8415 143.2565,41.2905 C143.2995,40.0445 143.2345,38.4935 144.2385,38.2965 C145.9875,37.9695 145.2225,40.7005 145.5065,42.1205 C145.9005,41.7495 146.1835,41.4865 146.4245,41.1155" id="Fill-36" fill="#10141C"></path>
            <mask id="mask-4" fill="white">
                <use xlink:href="#path-3"></use>
            </mask>
            <g id="Clip-39"></g>
            <path d="M156.4738,45.4856 C158.1558,45.8356 158.3968,45.3106 158.4838,42.5136 C158.4838,41.5746 158.4838,40.6776 158.3968,40.3286 C158.0248,40.2416 157.3698,40.1316 157.0638,40.2416 C155.3158,40.8316 153.3488,44.8956 156.4738,45.4856 M153.6328,51.0136 C154.1578,51.1236 154.7038,51.6476 155.6428,51.5816 C156.1018,51.5596 156.8018,50.9916 157.0638,50.6646 C157.6758,49.7246 158.0248,48.8506 157.9808,47.6706 C157.3258,47.5616 156.4298,47.6706 155.9278,47.6046 C155.1408,47.5396 154.3318,47.1456 153.7858,46.7096 C152.3658,45.5726 152.3008,43.1696 153.0428,41.3346 C153.8738,39.2146 156.3648,37.8156 158.5278,38.0126 C158.9428,38.0556 160.2978,38.2746 160.6248,38.6026 C160.9528,38.8866 160.9528,40.1316 160.9098,40.6126 C160.7998,42.2736 160.7568,43.8466 160.6248,45.4856 C160.4948,46.6866 160.4948,47.8446 160.2318,48.9166 C159.9698,50.0086 159.7288,50.5326 159.2928,51.3406 C158.7678,52.2806 157.7848,53.1986 156.7578,53.5916 C155.6868,54.0066 154.6818,53.9206 153.5898,53.4176 C152.8688,53.0896 152.3218,52.4336 152.4748,51.7996 C152.6718,51.0136 153.2398,50.9256 153.6328,51.0136" id="Fill-38" fill="#10141C" mask="url(#mask-4)"></path>
        </g>
    </g>
</svg>