<?xml version="1.0" encoding="UTF-8"?>
<svg width="445px" height="380px" viewBox="0 0 445 380" version="1.1" xmlns="http://www.w3.org/2000/svg" xmlns:xlink="http://www.w3.org/1999/xlink">
    <!-- Generator: Sketch 49.3 (51167) - http://www.bohemiancoding.com/sketch -->
    <title>Combined Shape</title>
    <desc>Created with Sketch.</desc>
    <defs></defs>
    <g id="Page-1" stroke="none" stroke-width="1" fill="none" fill-rule="evenodd">
        <g id="Desktop-HD" transform="translate(-486.000000, -266.000000)" fill="#E53D51">
            <path d="M856.12087,509.73717 C831.436523,506.908258 813.1876,498.848597 800.344837,487.120389 C796.558382,483.662539 793.439935,480.049229 790.920402,476.3958 C808.20611,481.884856 829.544413,479.826593 854.790468,470.45712 C857.379352,469.496317 858.699173,466.618728 857.73837,464.029844 C856.777567,461.44096 853.899978,460.12114 851.311094,461.081942 C821.648831,472.090386 798.894396,472.090386 782.742953,461.578865 C778.917432,459.089178 774.030217,462.605983 775.17562,467.024263 C775.321303,467.586219 775.606528,468.491809 776.061043,469.692194 C776.785141,471.604558 777.737805,473.711678 778.9491,475.963831 C782.364083,482.313288 787.170996,488.632221 793.601452,494.504611 C806.522146,506.303988 824.082528,514.689247 846.84683,518.519166 C757.510052,603.068888 711.352421,645.34374 708.373916,645.34374 C705.103712,645.34374 649.78275,594.38305 542.41103,492.461672 C533.145455,484.28616 523.607353,473.112957 513.79674,458.942074 C495.265576,432.235399 486,406.346287 486,381.274714 C486,377.533642 486.113478,373.876573 486.340434,370.303507 C486.528175,371.232561 486.727549,372.165642 486.938635,373.102698 C491.929826,395.259669 505.364977,412.293899 524.178392,424.075344 C537.962906,432.707561 554.370787,437.927668 563.933265,437.898414 C572.429379,437.872423 576.282613,432.085515 576.054316,423.080692 C575.92002,417.783615 576.026102,418.326971 571.687186,398.236337 C569.33968,387.366595 568.105605,379.888142 567.677044,372.352847 C567.306405,365.835979 567.650842,359.971073 568.80397,354.663814 C569.390275,351.96535 567.678032,349.302518 564.979568,348.716213 C562.281104,348.129908 559.618273,349.842151 559.031968,352.540615 C557.670887,358.804975 557.274365,365.556762 557.693178,372.920668 C558.158199,381.097013 559.463746,389.008595 561.912542,400.347339 C565.979525,419.178834 565.948099,419.017868 566.057528,423.334138 C566.159731,427.365371 565.808653,427.89263 563.902673,427.898461 C556.34084,427.921594 541.748094,423.278966 529.48585,415.600033 C512.798292,405.149855 501.054044,390.259495 496.694178,370.905115 C492.905459,354.086177 493.168835,338.835406 497.136818,325.326746 C502.19407,314.495544 508.973704,304.939352 517.47572,296.658169 C538.459537,276.21939 567.482603,266 604.544919,266 C623.621108,266 643.787374,272.540409 665.043705,285.621228 C672.379352,289.968281 679.647285,294.92478 686.8475,300.49073 C696.146931,324.915358 712.071692,343.348761 732.782668,356.491402 C742.646861,362.750961 753.069362,367.470954 763.590276,370.87911 C763.207685,371.690469 763,372.715028 763,374 C763,380.799507 768.679161,386.666651 774.155956,389.385667 C763.944782,408.179763 751.953364,422.045037 738.484325,431.319053 C723.055563,441.942422 705.904347,446.370338 687.828246,445.303606 C672.271509,444.38555 656.488148,439.373049 642.397054,431.478943 C630.296276,424.69985 620.410151,416.231593 615.90084,409.285319 C614.397248,406.969142 611.300714,406.310412 608.984538,407.814004 C606.668361,409.317596 606.009631,412.41413 607.513223,414.730306 C613.001939,423.185283 624.097389,432.689425 637.509562,440.203186 C652.859568,448.802559 670.0884,454.274115 687.239137,455.286238 C731.167632,457.878608 768.764412,431.9916 792.811116,373.229622 C794.086353,370.113374 791.979284,366.652993 788.625372,366.355493 C788.478277,366.342445 788.138835,366.306358 787.620043,366.241461 C786.720989,366.128994 785.668265,365.976168 784.474882,365.77725 C781.028876,365.202856 777.173956,364.375309 773.014287,363.249455 C761.11483,360.028752 749.21641,355.076329 738.140661,348.047949 C725.551809,340.059394 714.928566,329.980457 706.721407,317.56416 C707.272654,318.086015 707.823491,318.61157 708.373916,319.140826 C722.544799,305.514969 736.988207,294.341778 751.704128,285.621228 C772.960458,272.540409 793.126724,266 812.202914,266 C849.265229,266 878.288295,276.21939 899.272113,296.658169 C920.25593,317.096948 930.747833,345.302463 930.747833,381.274714 C930.747833,405.801249 922.027283,430.872822 904.586195,456.489421 C895.865645,469.57024 885.782519,481.560994 874.336802,492.461672 C868.088559,498.392745 862.01658,504.151246 856.120865,509.737174 Z M631.944731,333.99382 C642.649942,320.496852 651.525839,320.496852 662.231051,333.99382 C663.947055,336.157333 667.092026,336.52011 669.255539,334.804106 C671.419052,333.088101 671.781829,329.94313 670.065824,327.779617 C655.356973,309.234919 638.818808,309.234919 624.109957,327.779617 C622.393952,329.94313 622.756729,333.088101 624.920242,334.804106 C627.083755,336.52011 630.228726,336.157333 631.944731,333.99382 Z" id="Combined-Shape"></path>
        </g>
    </g>
</svg>