<?xml version="1.0" encoding="UTF-8"?>
<svg width="1047px" height="380px" viewBox="0 0 1047 380" version="1.1" xmlns="http://www.w3.org/2000/svg" xmlns:xlink="http://www.w3.org/1999/xlink">
    <!-- Generator: Sketch 49.3 (51167) - http://www.bohemiancoding.com/sketch -->
    <title>bigheart</title>
    <desc>Created with Sketch.</desc>
    <defs></defs>
    <g id="bigheart" stroke="none" stroke-width="1" fill="none" fill-rule="evenodd">
        <path d="M370.12087,243.73717 C345.436523,240.908258 327.1876,232.848597 314.344837,221.120389 C310.558382,217.662539 307.439935,214.049229 304.920402,210.3958 C322.20611,215.884856 343.544413,213.826593 368.790468,204.45712 C371.379352,203.496317 372.699173,200.618728 371.73837,198.029844 C370.777567,195.44096 367.899978,194.12114 365.311094,195.081942 C335.648831,206.090386 312.894396,206.090386 296.742953,195.578865 C292.917432,193.089178 288.030217,196.605983 289.17562,201.024263 C289.321303,201.586219 289.606528,202.491809 290.061043,203.692194 C290.785141,205.604558 291.737805,207.711678 292.9491,209.963831 C296.364083,216.313288 301.170996,222.632221 307.601452,228.504611 C320.522146,240.303988 338.082528,248.689247 360.84683,252.519166 C271.510052,337.068888 225.352421,379.34374 222.373916,379.34374 C219.103712,379.34374 163.78275,328.38305 56.4110302,226.461672 C47.1454545,218.28616 37.6073535,207.112957 27.7967395,192.942074 C9.26557569,166.235399 0,140.346287 0,115.274714 C0,111.533642 0.113477858,107.876573 0.340433588,104.303507 C0.528175421,105.232561 0.727548635,106.165642 0.938634506,107.102698 C5.92982591,129.259669 19.3649771,146.293899 38.1783919,158.075344 C51.9629058,166.707561 68.3707871,171.927668 77.9332647,171.898414 C86.4293786,171.872423 90.2826131,166.085515 90.0543159,157.080692 C89.9200203,151.783615 90.0261015,152.326971 85.6871861,132.236337 C83.3396797,121.366595 82.1056055,113.888142 81.6770443,106.352847 C81.306405,99.8359786 81.6508424,93.9710726 82.8039699,88.6638135 C83.3902749,85.9653496 81.6780319,83.3025182 78.979568,82.7162132 C76.281104,82.1299081 73.6182727,83.8421512 73.0319676,86.5406151 C71.6708874,92.804975 71.2743647,99.5567615 71.6931784,106.920668 C72.1581985,115.097013 73.4637464,123.008595 75.9125417,134.347339 C79.9795248,153.178834 79.9480987,153.017868 80.0575281,157.334138 C80.159731,161.365371 79.8086534,161.89263 77.9026728,161.898461 C70.3408405,161.921594 55.7480938,157.278966 43.4858497,149.600033 C26.7982923,139.149855 15.0540437,124.259495 10.694178,104.905115 C6.9054591,88.0861772 7.16883482,72.8354061 11.136818,59.3267459 C16.1940699,48.495544 22.9737036,38.9393516 31.4757198,30.6581686 C52.4595371,10.2193895 81.4826034,0 118.544919,0 C137.621108,0 157.787374,6.5404093 179.043705,19.6212279 C186.379352,23.9682806 193.647285,28.9247803 200.8475,34.4907303 C210.146931,58.9153583 226.071692,77.3487606 246.782668,90.4914025 C256.646861,96.7509611 267.069362,101.470954 277.590276,104.87911 C277.207685,105.690469 277,106.715028 277,108 C277,114.799507 282.679161,120.666651 288.155956,123.385667 C277.944782,142.179763 265.953364,156.045037 252.484325,165.319053 C237.055563,175.942422 219.904347,180.370338 201.828246,179.303606 C186.271509,178.38555 170.488148,173.373049 156.397054,165.478943 C144.296276,158.69985 134.410151,150.231593 129.90084,143.285319 C128.397248,140.969142 125.300714,140.310412 122.984538,141.814004 C120.668361,143.317596 120.009631,146.41413 121.513223,148.730306 C127.001939,157.185283 138.097389,166.689425 151.509562,174.203186 C166.859568,182.802559 184.0884,188.274115 201.239137,189.286238 C245.167632,191.878608 282.764412,165.9916 306.811116,107.229622 C308.086353,104.113374 305.979284,100.652993 302.625372,100.355493 C302.478277,100.342445 302.138835,100.306358 301.620043,100.241461 C300.720989,100.128994 299.668265,99.9761683 298.474882,99.7772502 C295.028876,99.2028555 291.173956,98.3753091 287.014287,97.2494546 C275.11483,94.0287519 263.21641,89.0763286 252.140661,82.0479493 C239.551809,74.0593941 228.928566,63.9804567 220.721407,51.5641601 C221.272654,52.0860149 221.823491,52.6115701 222.373916,53.1408256 C236.544799,39.5149687 250.988207,28.3417778 265.704128,19.6212279 C286.960458,6.5404093 307.126724,0 326.202914,0 C363.265229,0 392.288295,10.2193895 413.272113,30.6581686 C434.25593,51.0969477 444.747833,79.3024628 444.747833,115.274714 C444.747833,139.801249 436.027283,164.872822 418.586195,190.489421 C409.865645,203.57024 399.782519,215.560994 388.336802,226.461672 C382.088559,232.392745 376.01658,238.151246 370.120865,243.737174 Z M145.944731,67.9938204 C156.649942,54.4968515 165.525839,54.4968515 176.231051,67.9938204 C177.947055,70.1573334 181.092026,70.5201104 183.255539,68.8041056 C185.419052,67.0881008 185.781829,63.9431302 184.065824,61.7796171 C169.356973,43.2349193 152.818808,43.2349193 138.109957,61.7796171 C136.393952,63.9431302 136.756729,67.0881008 138.920242,68.8041056 C141.083755,70.5201104 144.228726,70.1573334 145.944731,67.9938204 Z" id="Combined-Shape" fill="#E53D51"></path>
        <g id="Oval" transform="translate(667.000000, 46.000000)"></g>
        <path d="M549.630285,97.1914432 C553.155885,101.123843 556.952685,101.530643 559.935885,104.649444 C564.817486,109.666644 569.021086,119.294244 566.851486,127.565845 C561.969886,145.871845 542.036685,151.431446 524.544284,150.482246 C519.527084,150.211046 514.374283,149.126246 512.882683,145.058245 C513.289483,132.989845 514.238683,120.650244 515.459083,105.463044 C516.272683,95.0218431 516.679484,76.5802422 519.933884,66.6814418 C523.188284,62.0710416 535.799084,60.8506415 544.341885,61.5286416 C552.749085,62.3422416 562.241086,68.4442419 563.054686,74.6818422 C563.597086,80.1058424 560.071485,84.1738426 557.630685,87.2926427 C554.783085,91.0894429 551.799885,92.852243 549.630285,97.1914432 Z M543.121485,86.8858427 C545.019885,85.3942426 546.918285,82.0042425 547.053885,79.8346424 C547.189485,75.6310422 538.375484,72.6478421 532.951484,74.8174422 C531.731084,77.9362423 530.375084,89.1910428 532.137884,93.259043 C532.951484,95.0218431 541.087485,88.3774428 543.121485,86.8858427 Z M551.935485,126.481044 C554.240685,115.633044 540.138285,105.869844 531.731084,107.497044 C529.154684,110.073444 529.832684,117.395844 529.425884,122.006244 C529.019084,126.887845 528.341084,132.176245 529.832684,135.837445 C537.290684,138.007045 550.715085,132.583045 551.935485,126.481044 Z M586.649087,70.885042 C591.395087,69.9358419 595.191887,72.3766421 595.327487,77.2582423 C595.463087,85.5298427 580.953886,87.8350428 580.140286,79.6990424 C579.733486,75.6310422 582.987886,71.698642 586.649087,70.885042 Z M585.428687,93.937043 C587.327087,93.665843 591.937487,95.1574431 592.615487,98.6830432 C593.022287,100.445843 591.801887,103.835843 590.988287,107.361444 C589.496687,115.090644 588.140687,122.819844 587.733887,131.498245 C587.462687,136.379845 587.869487,143.973445 586.513487,146.821045 C584.615087,150.617846 576.207886,153.329846 572.953486,149.939846 C570.648286,147.634645 571.868686,142.210645 572.546686,136.922245 C573.631486,127.565845 574.851886,117.802644 575.936686,108.853044 C576.885886,101.937443 578.919886,94.4794431 585.428687,93.937043 Z M599.124287,173.669847 C600.344687,168.788246 603.870287,168.245846 606.311088,168.788246 C609.565488,169.466246 612.955488,172.720647 618.786288,172.313847 C621.633888,172.178247 625.973088,168.652646 627.600289,166.618646 C631.397089,160.787846 633.566689,155.363846 633.295489,148.041445 C629.227489,147.363445 623.667888,148.041445 620.549088,147.634645 C615.667488,147.227845 610.650288,144.787045 607.260288,142.075045 C598.446287,135.023845 598.039487,120.107844 602.649887,108.717444 C607.802688,95.5642431 623.261088,86.8858427 636.685489,88.1062428 C639.261889,88.3774428 647.669089,89.7334428 649.703089,91.7674429 C651.73709,93.530243 651.73709,101.259443 651.46589,104.242643 C650.78789,114.548244 650.51669,124.311444 649.703089,134.481445 C648.889489,141.939445 648.889489,149.126246 647.262289,155.770646 C645.635089,162.550646 644.143489,165.805046 641.431489,170.822246 C638.177089,176.653047 632.075089,182.348247 625.701888,184.789047 C619.057488,187.365447 612.819888,186.823047 606.039888,183.704247 C601.565087,181.670247 598.175087,177.602247 599.124287,173.669847 Z M627.600289,101.937443 C616.752288,105.598644 604.548287,130.820245 623.939088,134.481445 C634.380289,136.651045 635.871889,133.396645 636.414289,116.039844 C636.414289,110.209044 636.414289,104.649444 635.871889,102.479843 C633.566689,101.937443 629.498689,101.259443 627.600289,101.937443 Z M716.282692,101.530643 C718.859093,103.835843 723.062693,103.700243 726.859493,103.700243 C730.656293,103.564643 735.402293,102.886643 736.758293,101.123843 C739.605894,94.4794431 739.877094,77.3938423 740.012694,68.3086419 C739.877094,64.1050417 739.470294,60.5794415 740.690694,58.0030414 C742.453494,54.3418412 748.962294,51.3586411 753.301494,54.7486413 C756.827094,57.5962414 753.979494,72.7834421 753.843894,80.1058424 C753.708294,94.8862431 753.030294,114.955044 750.996294,129.464245 C750.318294,134.345845 749.775894,144.922645 748.419894,147.363445 C746.385894,152.245046 740.283894,150.211046 737.300693,148.990646 C731.198693,147.363445 739.334694,124.718244 735.944693,118.073844 C733.775093,117.124644 730.927493,117.938244 728.079893,117.938244 C723.605093,117.938244 718.994693,116.989044 715.875892,118.480644 C712.350292,129.057445 714.113092,142.888645 712.485892,153.601046 C711.536692,156.584246 706.383892,161.872646 700.553092,159.567446 C695.807092,157.804646 697.298692,152.787446 697.841092,145.736245 C697.569892,135.701845 699.197092,125.260644 700.010692,114.955044 C700.553092,102.479843 700.824292,88.7842428 702.587092,76.1734422 C703.265092,66.0034418 702.315892,52.3078412 710.045092,51.0874411 C713.163892,50.6806411 716.689493,51.7654411 717.638693,52.8502412 C720.893093,56.3758413 718.045493,69.9358419 717.503093,76.1734422 C716.689493,85.8010427 715.740292,93.123443 716.282692,101.530643 Z M780.692695,131.905045 C781.777495,136.379845 785.303096,137.600245 791.269496,138.820645 C800.354696,140.719045 804.151496,133.396645 809.304297,136.515445 C812.287497,139.634245 811.609497,143.837845 809.304297,145.736245 C802.388696,150.753446 789.099896,152.516246 782.184295,148.855046 C771.200695,144.380245 767.675095,140.447845 764.013895,129.328645 C761.437495,117.667044 762.929095,109.124244 767.268295,103.157843 C770.522695,97.0558432 776.624695,91.7674429 782.048695,90.1402429 C795.337496,85.5298427 806.456697,89.4622428 812.287497,103.157843 C813.236697,104.785044 815.135097,110.209044 815.135097,112.649844 C815.406297,116.311044 812.829897,120.921444 809.168697,122.141844 C803.066696,124.311444 799.947896,126.209844 793.710296,127.972645 C789.506696,129.193045 783.947096,130.820245 780.692695,131.905045 Z M780.692695,106.276644 C777.167095,109.124244 776.624695,116.311044 777.709495,118.751844 C780.150295,119.158644 788.421896,116.446644 793.167896,115.497444 C796.286696,114.819444 800.219096,112.514244 800.897096,110.209044 C797.371496,99.9034433 789.235496,99.3610433 780.692695,106.276644 Z M833.441098,102.615443 C830.864698,101.666243 830.186698,100.039043 829.779898,97.5982432 C829.101898,92.174243 834.254698,89.5978428 838.593898,87.6994427 C847.136698,83.3602426 853.781099,80.5126424 862.323899,82.4110425 C867.205499,84.1738426 871.815899,90.6826429 872.9007,97.7338432 C874.3923,106.412244 872.3583,116.175444 871.273499,123.091044 C869.781899,130.955845 868.425899,138.413845 866.256299,145.736245 C865.307099,148.448245 861.781499,153.329846 858.527099,153.736646 C856.221899,154.143446 850.662299,153.194246 848.357098,152.245046 C840.356698,149.126246 834.254698,146.685445 828.288298,140.312245 C825.847497,138.142645 823.135497,135.295045 822.728697,132.176245 C821.237097,124.989444 824.762697,120.243444 827.745898,117.260244 C829.644298,115.361844 834.390298,112.514244 838.187098,111.293844 C844.831498,109.259844 856.493099,110.073444 858.662699,107.361444 C862.052699,102.751043 857.442299,95.6998431 854.323499,95.2930431 C844.153498,96.9202432 838.458298,103.022243 833.441098,102.615443 Z M848.221498,121.735044 C843.068698,122.006244 838.458298,123.362244 836.424298,126.074244 C836.559898,133.939045 846.594298,136.786645 853.103099,137.735845 C857.306699,136.651045 857.713499,127.159045 857.713499,122.413044 C855.950699,120.921444 850.797899,121.599444 848.221498,121.735044 Z M899.478301,87.0214427 C900.969901,91.6318429 900.156301,95.5642431 899.885101,100.039043 C903.275101,101.123843 907.885501,96.7846432 911.275501,95.4286431 C914.936701,94.072643 920.496302,91.9030429 925.377902,92.581043 C928.225502,92.852243 931.479902,94.6150431 932.022302,97.1914432 C932.835902,102.615443 927.818702,105.734244 925.106702,106.412244 C922.259102,107.090244 916.428302,108.581844 914.123101,109.395444 C908.563501,111.022644 899.342701,117.260244 899.342701,119.565444 C898.935901,125.938644 899.071501,141.261445 897.444301,146.956645 C896.088301,151.567046 893.5119,151.838246 888.3591,151.567046 C886.3251,151.431446 883.4775,149.804246 882.7995,148.177045 C882.2571,146.549845 882.7995,143.431045 883.2063,140.583445 C884.1555,129.464245 884.5623,111.158244 885.7827,100.174643 C887.0031,90.1402429 886.7319,85.2586426 894.0543,84.9874426 C896.088301,84.8518426 898.257901,85.6654427 899.478301,87.0214427 Z M972.159904,88.3774428 C975.414304,91.4962429 991.415105,85.3942426 992.771105,91.7674429 C993.584705,95.4286431 991.957505,99.3610433 989.109905,100.852643 C984.906305,103.022243 973.787104,102.073043 971.346304,104.242643 C968.769904,106.412244 967.820704,121.735044 967.413904,124.989444 C967.142704,127.701445 965.786704,138.142645 965.379904,140.854645 C964.430704,145.465045 963.617104,160.516646 956.837103,161.465846 C953.853903,161.872646 949.514703,160.652246 948.565503,158.753846 C947.751903,156.584246 950.735103,144.922645 951.006303,142.753045 C951.413103,140.312245 953.040303,130.006645 953.175903,127.565845 C953.989503,122.413044 954.125103,116.175444 954.667503,108.310644 C951.684303,104.785044 942.192303,108.988644 938.259902,107.090244 C935.412302,105.598644 934.463102,101.395043 935.141102,99.0898433 C935.547902,96.5134431 937.853102,93.801443 940.565103,92.716643 C943.412703,92.0386429 952.769103,92.174243 954.938703,90.6826429 C957.243903,89.0554428 957.921903,80.9194424 958.464303,77.8006423 C959.684703,69.9358419 958.599903,60.9862415 969.312304,60.4438415 C976.092304,60.0370415 975.278704,63.5626417 974.058304,68.3086419 C973.109104,75.4954422 970.668304,79.1566424 972.159904,88.3774428 Z M546.375885,208.867842 C552.884685,208.054242 563.868286,206.969442 564.546286,213.613842 C565.088686,218.224242 561.834286,219.987042 557.766285,221.207442 C553.291485,222.292242 550.443885,222.021042 544.884285,223.648242 C539.867085,225.139842 532.544684,230.835043 529.968284,237.750643 C522.781484,257.005844 526.578284,276.803445 552.206685,275.311845 C555.461085,275.176245 558.986685,272.871045 562.647886,272.193045 C566.715886,271.243845 571.190686,272.599845 572.139886,275.311845 C573.495886,279.244245 570.241486,282.498645 566.444686,284.803845 C560.342685,288.329445 555.461085,289.549845 545.969085,289.549845 C537.697484,289.549845 531.324284,286.566645 526.578284,283.990245 C519.391484,280.057845 512.882683,272.193045 512.204683,261.480644 C510.035083,230.563843 525.629084,216.597042 534.578684,212.257842 C537.968684,210.495042 542.443485,209.410242 546.375885,208.867842 Z M602.921087,229.885843 C622.583088,226.360243 635.465089,238.564243 636.007489,255.921044 C637.499089,266.633444 631.261489,277.074645 622.311888,283.583445 C617.159088,286.973445 610.921488,289.278645 602.649887,288.329445 C595.734287,287.651445 587.869487,283.312245 583.937087,279.244245 C576.750286,269.345444 578.241886,253.751444 584.208287,244.937443 C587.327087,240.055843 588.005087,238.564243 593.157887,234.496243 C596.412287,232.055443 598.581887,230.563843 602.921087,229.885843 Z M593.835887,265.006244 C594.920687,271.650645 601.293887,277.074645 610.243488,274.769445 C614.447088,273.549045 620.277888,268.396244 621.498288,262.294244 C623.939088,250.903844 615.803088,240.733843 606.311088,242.496643 C598.988687,243.852643 592.479887,256.463444 593.835887,265.006244 Z M661.36469,256.599044 C663.80549,254.293844 665.56829,252.666644 667.05989,250.361444 C670.04309,245.886643 673.839891,241.547443 678.450291,238.021843 C681.975891,235.445443 687.264291,231.784243 692.552691,235.309843 C694.179891,236.259043 696.349492,241.276243 696.756292,245.615443 C697.569892,254.971844 694.179891,270.430245 694.044291,280.329045 C694.044291,282.769845 694.586692,286.024245 694.044291,287.515845 C692.281491,292.126246 683.060691,294.295846 679.941891,289.414245 C679.535091,282.769845 680.213091,275.583045 681.162291,268.938644 C681.975891,262.429844 682.653891,258.633044 681.840291,252.531044 C677.636691,253.073444 674.924691,258.226244 672.212691,262.023044 C665.43269,270.972645 666.38189,270.837045 662.31389,277.617045 C660.00869,281.685045 655.53389,293.482246 651.87269,294.160246 C642.109489,296.194246 643.736689,287.380245 644.685889,278.837445 C645.635089,269.345444 646.991089,261.073844 647.397889,251.446244 C647.669089,243.717043 647.262289,234.089443 653.49989,232.869043 C664.34789,230.835043 659.60189,247.785044 661.36469,256.599044 Z M729.707093,229.885843 C730.385093,229.750243 737.436293,230.157043 740.148294,231.241843 C745.572294,233.411443 750.860694,236.801443 751.403094,241.547443 C751.809894,245.073043 748.826694,247.785044 747.470694,248.598644 C744.758694,250.768244 738.521093,246.022243 735.809093,244.801843 C728.351093,242.767843 724.011893,243.988243 723.740693,248.327444 C723.469493,252.124244 730.520693,255.649844 731.741093,256.599044 C737.300693,260.938244 745.843494,266.633444 745.572294,276.667845 C745.301094,284.125845 740.961894,289.821045 735.673493,293.346646 C731.876693,295.923046 724.418693,297.007846 719.537093,295.923046 C708.011092,293.346646 706.112692,291.583845 707.333092,284.668245 C707.604292,283.447845 709.231492,281.956245 710.587492,281.413845 C717.909893,278.295045 723.198293,288.871845 731.334293,277.752645 C732.147893,271.921845 722.927093,267.175844 719.130293,264.463844 C714.519892,261.073844 708.824692,256.599044 708.417892,250.903844 C708.146692,247.378243 708.824692,241.411843 710.723092,238.971043 C715.604692,233.004643 722.384693,230.699443 729.707093,229.885843 Z M773.234695,236.665843 C776.895895,238.971043 775.811095,244.259443 775.268695,248.463044 C774.183895,259.175444 769.437895,281.956245 785.167496,278.430645 C790.591496,277.617045 794.252696,265.141844 794.930696,257.683844 C795.473096,251.717444 794.523896,240.733843 795.608696,236.259043 C796.693496,232.191043 803.337896,230.835043 805.778697,232.326643 C809.711097,234.631843 809.982297,246.022243 809.846697,252.531044 C809.711097,257.955044 808.897497,264.057044 807.270297,269.616645 C802.931096,284.939445 795.201896,294.567046 775.268695,291.312645 C767.946295,289.549845 761.301895,284.668245 760.081494,274.633845 C759.539094,270.023445 759.674694,260.667044 759.810294,256.599044 C760.352694,246.157843 761.437495,236.123443 773.234695,236.665843 Z M832.627498,197.070641 C842.119498,194.223041 838.593898,208.461042 837.915898,216.461442 C836.424298,237.208243 834.254698,254.700644 832.491898,274.633845 C832.085098,278.566245 830.729098,289.278645 829.644298,292.126246 C828.017098,296.465446 822.186297,300.397846 818.253897,297.957046 C813.643497,295.380646 817.847097,277.752645 818.525097,271.243845 C820.423497,254.565044 822.050697,242.496643 823.406697,226.224643 C824.355897,214.969842 823.406697,199.918241 832.627498,197.070641 Z M879.8163,231.377443 C883.0707,234.496243 899.071501,228.394243 900.427501,234.767443 C901.241101,238.428643 899.613901,242.361043 896.766301,243.852643 C892.5627,246.022243 881.4435,245.073043 879.0027,247.242643 C876.4263,249.412244 875.4771,264.735044 875.0703,267.989444 C874.7991,270.701445 873.4431,281.142645 873.0363,283.854645 C872.0871,288.465045 871.273499,303.516646 864.493499,304.465846 C861.510299,304.872646 857.171099,303.652246 856.221899,301.753846 C855.408299,299.584246 858.391499,287.922645 858.662699,285.753045 C859.069499,283.312245 860.696699,273.006645 860.832299,270.565845 C861.645899,265.413044 861.781499,259.175444 862.323899,251.310644 C859.340699,247.785044 849.848699,251.988644 845.916298,250.090244 C843.068698,248.598644 842.119498,244.395043 842.797498,242.089843 C843.204298,239.513443 845.509498,236.801443 848.221498,235.716643 C851.069099,235.038643 860.425499,235.174243 862.595099,233.682643 C864.900299,232.055443 865.578299,223.919442 866.120699,220.800642 C867.341099,212.935842 866.256299,203.986242 876.9687,203.443842 C883.7487,203.037042 882.9351,206.562642 881.7147,211.308642 C880.7655,218.495442 878.3247,222.156642 879.8163,231.377443 Z M919.547102,213.885042 C924.293102,212.935842 928.089902,215.376642 928.225502,220.258242 C928.361102,228.529843 913.851901,230.835043 913.038301,222.699042 C912.631501,218.631042 915.885901,214.698642 919.547102,213.885042 Z M918.326702,236.937043 C920.225102,236.665843 924.835502,238.157443 925.513502,241.683043 C925.920302,243.445843 924.699902,246.835843 923.886302,250.361444 C922.394702,258.090644 921.038702,265.819844 920.631902,274.498245 C920.360702,279.379845 920.767502,286.973445 919.411502,289.821045 C917.513102,293.617846 909.105901,296.329846 905.851501,292.939846 C903.546301,290.634645 904.766701,285.210645 905.444701,279.922245 C906.529501,270.565845 907.749901,260.802644 908.834701,251.853044 C909.783901,244.937443 911.817901,237.479443 918.326702,236.937043 Z M951.277503,256.599044 C953.718303,254.293844 955.481103,252.666644 956.972703,250.361444 C959.955903,245.886643 963.752704,241.547443 968.363104,238.021843 C971.888704,235.445443 977.177104,231.784243 982.465504,235.309843 C984.092705,236.259043 986.262305,241.276243 986.669105,245.615443 C987.482705,254.971844 984.092705,270.430245 983.957105,280.329045 C983.957105,282.769845 984.499505,286.024245 983.957105,287.515845 C982.194304,292.126246 972.973504,294.295846 969.854704,289.414245 C969.447904,282.769845 970.125904,275.583045 971.075104,268.938644 C971.888704,262.429844 972.566704,258.633044 971.753104,252.531044 C967.549504,253.073444 964.837504,258.226244 962.125504,262.023044 C955.345503,270.972645 956.294703,270.837045 952.226703,277.617045 C949.921503,281.685045 945.446703,293.482246 941.785503,294.160246 C932.022302,296.194246 933.649502,287.380245 934.598702,278.837445 C935.547902,269.345444 936.903902,261.073844 937.310702,251.446244 C937.581902,243.717043 937.175102,234.089443 943.412703,232.869043 C954.260703,230.835043 949.514703,247.785044 951.277503,256.599044 Z M994.533905,316.669847 C995.754305,311.788246 999.279905,311.245846 1001.72071,311.788246 C1004.97511,312.466246 1008.36511,315.720647 1014.19591,315.313847 C1017.04351,315.178247 1021.38271,311.652646 1023.00991,309.618646 C1026.80671,303.787846 1028.97631,298.363846 1028.70511,291.041445 C1024.63711,290.363445 1019.07751,291.041445 1015.95871,290.634645 C1011.07711,290.227845 1006.05991,287.787045 1002.66991,285.075045 C993.855905,278.023845 993.449105,263.107844 998.059505,251.717444 C1003.21231,238.564243 1018.67071,229.885843 1032.09511,231.106243 C1034.67151,231.377443 1043.07871,232.733443 1045.11271,234.767443 C1047.14671,236.530243 1047.14671,244.259443 1046.87551,247.242643 C1046.19751,257.548244 1045.92631,267.311444 1045.11271,277.481445 C1044.29911,284.939445 1044.29911,292.126246 1042.67191,298.770646 C1041.04471,305.550646 1039.55311,308.805046 1036.84111,313.822246 C1033.58671,319.653047 1027.48471,325.348247 1021.11151,327.789047 C1014.46711,330.365447 1008.22951,329.823047 1001.44951,326.704247 C996.974705,324.670247 993.584705,320.602247 994.533905,316.669847 Z M1023.00991,244.937443 C1012.16191,248.598644 999.957905,273.820245 1019.34871,277.481445 C1029.78991,279.651045 1031.28151,276.396645 1031.82391,259.039844 C1031.82391,253.209044 1031.82391,247.649444 1031.28151,245.479843 C1028.97631,244.937443 1024.90831,244.259443 1023.00991,244.937443 Z" id="Big-Heart-Consulting" fill="#111822"></path>
    </g>
</svg>