<?xml version="1.0" encoding="UTF-8"?>
<svg width="1047px" height="380px" viewBox="0 0 1047 380" version="1.1" xmlns="http://www.w3.org/2000/svg" xmlns:xlink="http://www.w3.org/1999/xlink">
    <!-- Generator: Sketch 49.3 (51167) - http://www.bohemiancoding.com/sketch -->
    <title>bigheart</title>
    <desc>Created with Sketch.</desc>
    <defs></defs>
    <g id="bigheart" stroke="none" stroke-width="1" fill="none" fill-rule="evenodd">
        <path d="M370.12087,243.73717 C345.436523,240.908258 327.1876,232.848597 314.344837,221.120389 C310.558382,217.662539 307.439935,214.049229 304.920402,210.3958 C322.20611,215.884856 343.544413,213.826593 368.790468,204.45712 C371.379352,203.496317 372.699173,200.618728 371.73837,198.029844 C370.777567,195.44096 367.899978,194.12114 365.311094,195.081942 C335.648831,206.090386 312.894396,206.090386 296.742953,195.578865 C292.917432,193.089178 288.030217,196.605983 289.17562,201.024263 C289.321303,201.586219 289.606528,202.491809 290.061043,203.692194 C290.785141,205.604558 291.737805,207.711678 292.9491,209.963831 C296.364083,216.313288 301.170996,222.632221 307.601452,228.504611 C320.522146,240.303988 338.082528,248.689247 360.84683,252.519166 C271.510052,337.068888 225.352421,379.34374 222.373916,379.34374 C219.103712,379.34374 163.78275,328.38305 56.4110302,226.461672 C47.1454545,218.28616 37.6073535,207.112957 27.7967395,192.942074 C9.26557569,166.235399 0,140.346287 0,115.274714 C0,111.533642 0.113477858,107.876573 0.340433588,104.303507 C0.528175421,105.232561 0.727548635,106.165642 0.938634506,107.102698 C5.92982591,129.259669 19.3649771,146.293899 38.1783919,158.075344 C51.9629058,166.707561 68.3707871,171.927668 77.9332647,171.898414 C86.4293786,171.872423 90.2826131,166.085515 90.0543159,157.080692 C89.9200203,151.783615 90.0261015,152.326971 85.6871861,132.236337 C83.3396797,121.366595 82.1056055,113.888142 81.6770443,106.352847 C81.306405,99.8359786 81.6508424,93.9710726 82.8039699,88.6638135 C83.3902749,85.9653496 81.6780319,83.3025182 78.979568,82.7162132 C76.281104,82.1299081 73.6182727,83.8421512 73.0319676,86.5406151 C71.6708874,92.804975 71.2743647,99.5567615 71.6931784,106.920668 C72.1581985,115.097013 73.4637464,123.008595 75.9125417,134.347339 C79.9795248,153.178834 79.9480987,153.017868 80.0575281,157.334138 C80.159731,161.365371 79.8086534,161.89263 77.9026728,161.898461 C70.3408405,161.921594 55.7480938,157.278966 43.4858497,149.600033 C26.7982923,139.149855 15.0540437,124.259495 10.694178,104.905115 C6.9054591,88.0861772 7.16883482,72.8354061 11.136818,59.3267459 C16.1940699,48.495544 22.9737036,38.9393516 31.4757198,30.6581686 C52.4595371,10.2193895 81.4826034,0 118.544919,0 C137.621108,0 157.787374,6.5404093 179.043705,19.6212279 C186.379352,23.9682806 193.647285,28.9247803 200.8475,34.4907303 C210.146931,58.9153583 226.071692,77.3487606 246.782668,90.4914025 C256.646861,96.7509611 267.069362,101.470954 277.590276,104.87911 C277.207685,105.690469 277,106.715028 277,108 C277,114.799507 282.679161,120.666651 288.155956,123.385667 C277.944782,142.179763 265.953364,156.045037 252.484325,165.319053 C237.055563,175.942422 219.904347,180.370338 201.828246,179.303606 C186.271509,178.38555 170.488148,173.373049 156.397054,165.478943 C144.296276,158.69985 134.410151,150.231593 129.90084,143.285319 C128.397248,140.969142 125.300714,140.310412 122.984538,141.814004 C120.668361,143.317596 120.009631,146.41413 121.513223,148.730306 C127.001939,157.185283 138.097389,166.689425 151.509562,174.203186 C166.859568,182.802559 184.0884,188.274115 201.239137,189.286238 C245.167632,191.878608 282.764412,165.9916 306.811116,107.229622 C308.086353,104.113374 305.979284,100.652993 302.625372,100.355493 C302.478277,100.342445 302.138835,100.306358 301.620043,100.241461 C300.720989,100.128994 299.668265,99.9761683 298.474882,99.7772502 C295.028876,99.2028555 291.173956,98.3753091 287.014287,97.2494546 C275.11483,94.0287519 263.21641,89.0763286 252.140661,82.0479493 C239.551809,74.0593941 228.928566,63.9804567 220.721407,51.5641601 C221.272654,52.0860149 221.823491,52.6115701 222.373916,53.1408256 C236.544799,39.5149687 250.988207,28.3417778 265.704128,19.6212279 C286.960458,6.5404093 307.126724,0 326.202914,0 C363.265229,0 392.288295,10.2193895 413.272113,30.6581686 C434.25593,51.0969477 444.747833,79.3024628 444.747833,115.274714 C444.747833,139.801249 436.027283,164.872822 418.586195,190.489421 C409.865645,203.57024 399.782519,215.560994 388.336802,226.461672 C382.088559,232.392745 376.01658,238.151246 370.120865,243.737174 Z M145.944731,67.9938204 C156.649942,54.4968515 165.525839,54.4968515 176.231051,67.9938204 C177.947055,70.1573334 181.092026,70.5201104 183.255539,68.8041056 C185.419052,67.0881008 185.781829,63.9431302 184.065824,61.7796171 C169.356973,43.2349193 152.818808,43.2349193 138.109957,61.7796171 C136.393952,63.9431302 136.756729,67.0881008 138.920242,68.8041056 C141.083755,70.5201104 144.228726,70.1573334 145.944731,67.9938204 Z" id="Combined-Shape" fill="#E53D51"></path>
        <g id="Oval" transform="translate(667.000000, 46.000000)"></g>
        <text id="Big-Heart-Consulting" font-family="GoodDogNew, GoodDog New" font-size="135.600006" font-weight="normal" line-spacing="143" fill="#111822">
            <tspan x="508" y="189">Big Heart </tspan>
            <tspan x="508" y="332">Consulting</tspan>
        </text>
    </g>
</svg>